<mxfile host="app.diagrams.net" modified="2020-08-02T13:06:54.517Z" agent="5.0 (X11; Linux x86_64) AppleWebKit/537.36 (KHTML, like Gecko) Chrome/83.0.4103.116 Safari/537.36 OPR/69.0.3686.77" etag="Iz2d4a1WTVw0WJNVHsVj" version="13.5.8" type="github">
  <diagram id="_oGlJvyZ0l_uF6xk_jwX" name="Page-1">
    <mxGraphModel dx="1719" dy="1875" grid="1" gridSize="10" guides="1" tooltips="1" connect="1" arrows="1" fold="1" page="1" pageScale="1" pageWidth="850" pageHeight="1100" math="0" shadow="0">
      <root>
        <mxCell id="0" />
        <mxCell id="1" parent="0" />
        <mxCell id="Reaml4YtZEYa-Rm0gZFg-3" style="edgeStyle=orthogonalEdgeStyle;rounded=0;orthogonalLoop=1;jettySize=auto;html=1;" parent="1" source="Reaml4YtZEYa-Rm0gZFg-2" edge="1">
          <mxGeometry relative="1" as="geometry">
            <mxPoint x="855" y="-310" as="targetPoint" />
          </mxGeometry>
        </mxCell>
        <mxCell id="Reaml4YtZEYa-Rm0gZFg-2" value="" style="whiteSpace=wrap;html=1;aspect=fixed;" parent="1" vertex="1">
          <mxGeometry x="-40" y="-410" width="1760" height="1760" as="geometry" />
        </mxCell>
        <mxCell id="Reaml4YtZEYa-Rm0gZFg-4" value="" style="outlineConnect=0;dashed=0;verticalLabelPosition=bottom;verticalAlign=top;align=center;html=1;shape=mxgraph.aws3.bucket_with_objects;fillColor=#E05243;gradientColor=none;" parent="1" vertex="1">
          <mxGeometry x="130" y="10" width="80" height="100" as="geometry" />
        </mxCell>
        <mxCell id="Reaml4YtZEYa-Rm0gZFg-5" value="" style="outlineConnect=0;dashed=0;verticalLabelPosition=bottom;verticalAlign=top;align=center;html=1;shape=mxgraph.aws3.bucket_with_objects;fillColor=#E05243;gradientColor=none;" parent="1" vertex="1">
          <mxGeometry x="280" y="20" width="90" height="90" as="geometry" />
        </mxCell>
        <mxCell id="Reaml4YtZEYa-Rm0gZFg-6" value="&lt;font style=&quot;font-size: 16px&quot;&gt;&lt;b&gt;Books&amp;nbsp;&lt;br&gt;React Frontend&lt;/b&gt;&lt;/font&gt;" style="whiteSpace=wrap;html=1;aspect=fixed;" parent="1" vertex="1">
          <mxGeometry x="90" y="220" width="290" height="290" as="geometry" />
        </mxCell>
        <mxCell id="Reaml4YtZEYa-Rm0gZFg-7" value="" style="shape=image;html=1;verticalAlign=top;verticalLabelPosition=bottom;labelBackgroundColor=#ffffff;imageAspect=0;aspect=fixed;image=https://cdn4.iconfinder.com/data/icons/logos-3/600/React.js_logo-128.png" parent="1" vertex="1">
          <mxGeometry x="160" y="220" width="128" height="128" as="geometry" />
        </mxCell>
        <mxCell id="Reaml4YtZEYa-Rm0gZFg-8" value="" style="outlineConnect=0;fontColor=#232F3E;gradientColor=#F54749;gradientDirection=north;fillColor=#C7131F;strokeColor=#ffffff;dashed=0;verticalLabelPosition=bottom;verticalAlign=top;align=center;html=1;fontSize=12;fontStyle=0;aspect=fixed;shape=mxgraph.aws4.resourceIcon;resIcon=mxgraph.aws4.amplify;" parent="1" vertex="1">
          <mxGeometry x="360" y="296" width="78" height="78" as="geometry" />
        </mxCell>
        <mxCell id="Reaml4YtZEYa-Rm0gZFg-9" value="" style="outlineConnect=0;fontColor=#232F3E;gradientColor=#F54749;gradientDirection=north;fillColor=#C7131F;strokeColor=#ffffff;dashed=0;verticalLabelPosition=bottom;verticalAlign=top;align=center;html=1;fontSize=12;fontStyle=0;aspect=fixed;shape=mxgraph.aws4.resourceIcon;resIcon=mxgraph.aws4.appsync;" parent="1" vertex="1">
          <mxGeometry x="540" y="300" width="78" height="78" as="geometry" />
        </mxCell>
        <mxCell id="Reaml4YtZEYa-Rm0gZFg-10" value="" style="outlineConnect=0;fontColor=#232F3E;gradientColor=#F54749;gradientDirection=north;fillColor=#C7131F;strokeColor=#ffffff;dashed=0;verticalLabelPosition=bottom;verticalAlign=top;align=center;html=1;fontSize=12;fontStyle=0;aspect=fixed;shape=mxgraph.aws4.resourceIcon;resIcon=mxgraph.aws4.cognito;" parent="1" vertex="1">
          <mxGeometry x="530" y="80" width="78" height="78" as="geometry" />
        </mxCell>
        <mxCell id="Reaml4YtZEYa-Rm0gZFg-12" value="&lt;font color=&quot;#0066cc&quot;&gt;&lt;b style=&quot;font-size: 36px&quot;&gt;Stripe&lt;/b&gt;&lt;br&gt;&lt;font style=&quot;font-size: 24px&quot;&gt;mpesa&lt;br&gt;airtel M&lt;/font&gt;&lt;br&gt;&lt;/font&gt;" style="rounded=0;whiteSpace=wrap;html=1;" parent="1" vertex="1">
          <mxGeometry x="770" y="-10" width="210" height="110" as="geometry" />
        </mxCell>
        <mxCell id="Reaml4YtZEYa-Rm0gZFg-13" value="" style="rounded=0;whiteSpace=wrap;html=1;" parent="1" vertex="1">
          <mxGeometry x="790" y="180" width="360" height="190" as="geometry" />
        </mxCell>
        <mxCell id="Reaml4YtZEYa-Rm0gZFg-14" value="" style="outlineConnect=0;fontColor=#232F3E;gradientColor=none;fillColor=#D05C17;strokeColor=none;dashed=0;verticalLabelPosition=bottom;verticalAlign=top;align=center;html=1;fontSize=12;fontStyle=0;aspect=fixed;pointerEvents=1;shape=mxgraph.aws4.lambda_function;" parent="1" vertex="1">
          <mxGeometry x="830" y="200" width="78" height="78" as="geometry" />
        </mxCell>
        <mxCell id="Reaml4YtZEYa-Rm0gZFg-16" value="" style="outlineConnect=0;fontColor=#232F3E;gradientColor=none;fillColor=#D05C17;strokeColor=none;dashed=0;verticalLabelPosition=bottom;verticalAlign=top;align=center;html=1;fontSize=12;fontStyle=0;aspect=fixed;pointerEvents=1;shape=mxgraph.aws4.lambda_function;" parent="1" vertex="1">
          <mxGeometry x="1010" y="200" width="78" height="78" as="geometry" />
        </mxCell>
        <mxCell id="Reaml4YtZEYa-Rm0gZFg-17" value="&lt;font style=&quot;font-size: 17px&quot;&gt;&lt;b&gt;VTL&lt;/b&gt;&lt;/font&gt;" style="rounded=0;whiteSpace=wrap;html=1;direction=south;" parent="1" vertex="1">
          <mxGeometry x="790" y="435" width="110" height="170" as="geometry" />
        </mxCell>
        <mxCell id="Reaml4YtZEYa-Rm0gZFg-18" value="" style="outlineConnect=0;fontColor=#232F3E;gradientColor=#4D72F3;gradientDirection=north;fillColor=#3334B9;strokeColor=#ffffff;dashed=0;verticalLabelPosition=bottom;verticalAlign=top;align=center;html=1;fontSize=12;fontStyle=0;aspect=fixed;shape=mxgraph.aws4.resourceIcon;resIcon=mxgraph.aws4.dynamodb;" parent="1" vertex="1">
          <mxGeometry x="1030" y="440" width="160" height="160" as="geometry" />
        </mxCell>
        <mxCell id="Reaml4YtZEYa-Rm0gZFg-19" value="Hosting&lt;br&gt;Bucket" style="text;html=1;strokeColor=none;fillColor=none;align=center;verticalAlign=middle;whiteSpace=wrap;rounded=0;" parent="1" vertex="1">
          <mxGeometry x="150" y="120" width="40" height="20" as="geometry" />
        </mxCell>
        <mxCell id="Reaml4YtZEYa-Rm0gZFg-20" value="Image&lt;br&gt;Bucket" style="text;html=1;strokeColor=none;fillColor=none;align=center;verticalAlign=middle;whiteSpace=wrap;rounded=0;" parent="1" vertex="1">
          <mxGeometry x="300" y="120" width="40" height="20" as="geometry" />
        </mxCell>
        <mxCell id="Reaml4YtZEYa-Rm0gZFg-21" value="AWS Amplify" style="text;html=1;strokeColor=none;fillColor=none;align=center;verticalAlign=middle;whiteSpace=wrap;rounded=0;" parent="1" vertex="1">
          <mxGeometry x="358" y="378" width="80" height="20" as="geometry" />
        </mxCell>
        <mxCell id="Reaml4YtZEYa-Rm0gZFg-22" value="AWS AppSync" style="text;html=1;strokeColor=none;fillColor=none;align=center;verticalAlign=middle;whiteSpace=wrap;rounded=0;" parent="1" vertex="1">
          <mxGeometry x="540" y="388" width="90" height="20" as="geometry" />
        </mxCell>
        <mxCell id="Reaml4YtZEYa-Rm0gZFg-23" value="Amazon Cognito" style="text;html=1;strokeColor=none;fillColor=none;align=center;verticalAlign=middle;whiteSpace=wrap;rounded=0;" parent="1" vertex="1">
          <mxGeometry x="528" y="170" width="92" height="20" as="geometry" />
        </mxCell>
        <mxCell id="Reaml4YtZEYa-Rm0gZFg-24" value="Amazon DynamoDB" style="text;html=1;strokeColor=none;fillColor=none;align=center;verticalAlign=middle;whiteSpace=wrap;rounded=0;" parent="1" vertex="1">
          <mxGeometry x="1040" y="620" width="140" height="20" as="geometry" />
        </mxCell>
        <mxCell id="Reaml4YtZEYa-Rm0gZFg-25" value="Make Payment Lambda" style="text;html=1;strokeColor=none;fillColor=none;align=center;verticalAlign=middle;whiteSpace=wrap;rounded=0;" parent="1" vertex="1">
          <mxGeometry x="840" y="290" width="70" height="40" as="geometry" />
        </mxCell>
        <mxCell id="Reaml4YtZEYa-Rm0gZFg-30" value="" style="endArrow=block;html=1;endFill=1;" parent="1" source="Reaml4YtZEYa-Rm0gZFg-8" edge="1">
          <mxGeometry width="50" height="50" relative="1" as="geometry">
            <mxPoint x="510" y="370" as="sourcePoint" />
            <mxPoint x="530" y="339" as="targetPoint" />
            <Array as="points">
              <mxPoint x="520" y="339" />
            </Array>
          </mxGeometry>
        </mxCell>
        <mxCell id="Reaml4YtZEYa-Rm0gZFg-33" value="" style="endArrow=block;html=1;endFill=1;" parent="1" edge="1">
          <mxGeometry width="50" height="50" relative="1" as="geometry">
            <mxPoint x="430" y="123" as="sourcePoint" />
            <mxPoint x="522" y="122.71000000000001" as="targetPoint" />
            <Array as="points">
              <mxPoint x="512" y="122.71000000000001" />
            </Array>
          </mxGeometry>
        </mxCell>
        <mxCell id="Reaml4YtZEYa-Rm0gZFg-34" value="" style="endArrow=none;html=1;" parent="1" source="Reaml4YtZEYa-Rm0gZFg-8" edge="1">
          <mxGeometry width="50" height="50" relative="1" as="geometry">
            <mxPoint x="400" y="290" as="sourcePoint" />
            <mxPoint x="430" y="120" as="targetPoint" />
          </mxGeometry>
        </mxCell>
        <mxCell id="Reaml4YtZEYa-Rm0gZFg-37" value="" style="strokeWidth=2;html=1;shape=mxgraph.flowchart.annotation_2;align=left;labelPosition=right;pointerEvents=1;" parent="1" vertex="1">
          <mxGeometry x="618" y="230" width="170" height="250" as="geometry" />
        </mxCell>
        <mxCell id="Reaml4YtZEYa-Rm0gZFg-38" value="" style="endArrow=classic;html=1;" parent="1" source="Reaml4YtZEYa-Rm0gZFg-14" edge="1">
          <mxGeometry width="50" height="50" relative="1" as="geometry">
            <mxPoint x="790" y="100" as="sourcePoint" />
            <mxPoint x="840" y="50" as="targetPoint" />
          </mxGeometry>
        </mxCell>
        <mxCell id="Reaml4YtZEYa-Rm0gZFg-42" value="" style="endArrow=classic;html=1;" parent="1" target="Reaml4YtZEYa-Rm0gZFg-16" edge="1">
          <mxGeometry width="50" height="50" relative="1" as="geometry">
            <mxPoint x="908" y="250" as="sourcePoint" />
            <mxPoint x="958" y="200" as="targetPoint" />
          </mxGeometry>
        </mxCell>
        <mxCell id="Reaml4YtZEYa-Rm0gZFg-43" value="" style="endArrow=classic;html=1;" parent="1" source="Reaml4YtZEYa-Rm0gZFg-26" target="Reaml4YtZEYa-Rm0gZFg-18" edge="1">
          <mxGeometry width="50" height="50" relative="1" as="geometry">
            <mxPoint x="1024" y="328" as="sourcePoint" />
            <mxPoint x="1074" y="278" as="targetPoint" />
          </mxGeometry>
        </mxCell>
        <mxCell id="Reaml4YtZEYa-Rm0gZFg-44" value="" style="endArrow=classic;html=1;" parent="1" target="Reaml4YtZEYa-Rm0gZFg-18" edge="1">
          <mxGeometry width="50" height="50" relative="1" as="geometry">
            <mxPoint x="900" y="520" as="sourcePoint" />
            <mxPoint x="950" y="470" as="targetPoint" />
          </mxGeometry>
        </mxCell>
        <mxCell id="Reaml4YtZEYa-Rm0gZFg-45" value="" style="endArrow=classic;html=1;" parent="1" target="Reaml4YtZEYa-Rm0gZFg-10" edge="1">
          <mxGeometry width="50" height="50" relative="1" as="geometry">
            <mxPoint x="860" y="155" as="sourcePoint" />
            <mxPoint x="728" y="105" as="targetPoint" />
            <Array as="points">
              <mxPoint x="698" y="135" />
            </Array>
          </mxGeometry>
        </mxCell>
        <mxCell id="Reaml4YtZEYa-Rm0gZFg-26" value="Create Order Lambda" style="text;html=1;strokeColor=none;fillColor=none;align=center;verticalAlign=middle;whiteSpace=wrap;rounded=0;" parent="1" vertex="1">
          <mxGeometry x="1003.5" y="288" width="91" height="42" as="geometry" />
        </mxCell>
        <mxCell id="Reaml4YtZEYa-Rm0gZFg-47" value="" style="endArrow=classic;html=1;" parent="1" source="Reaml4YtZEYa-Rm0gZFg-16" target="Reaml4YtZEYa-Rm0gZFg-26" edge="1">
          <mxGeometry width="50" height="50" relative="1" as="geometry">
            <mxPoint x="1057.4661921708189" y="278" as="sourcePoint" />
            <mxPoint x="1092.6334519572956" y="440" as="targetPoint" />
          </mxGeometry>
        </mxCell>
      </root>
    </mxGraphModel>
  </diagram>
</mxfile>
